<svg width="32" height="32" viewBox="0 0 32 32" fill="none" xmlns="http://www.w3.org/2000/svg">
<g clip-path="url(#clip0_2_13865)">
<path fill-rule="evenodd" clip-rule="evenodd" d="M16 0C7.2 0 0 7.2 0 16C0 24.8 7.2 32 16 32C24.8 32 32 24.8 32 16C32 7.2 24.8 0 16 0ZM25.7333 26.1333C24.8 25.7333 23.8667 25.2 22.8 24.6667C21.7333 24.2667 20.5333 23.8667 19.8667 23.0667C19.2 22.4 19.0667 20.4 19.6 19.4667C19.8667 19.0667 20.1333 18.6667 20.4 18C20.9333 16.4 20.2667 17.4667 21.2 16.5333C21.6 16.1333 21.7333 15.6 21.7333 14.9333C21.7333 13.7333 21.2 14.4 21.4667 13.2C22.2667 9.2 21.7333 5.33333 16.4 5.33333C14.4 5.33333 14.1333 6.26667 13.2 6.53333C10.4 7.46667 10.6667 10.5333 11.2 12.9333C11.6 14.5333 11.3333 13.6 11.0667 14.6667C10.9333 15.2 11.2 16.1333 11.4667 16.4C12.1333 17.3333 11.8667 16.2667 12.4 17.8667C12.8 20.1333 13.3333 18.8 13.3333 21.3333C13.3333 22.1333 13.2 22.6667 12.8 23.2C12.1333 24 9.46667 24.9333 8.26667 25.4667C7.73333 25.7333 7.2 26.1333 6.8 26.2667C-2.13334 17.8667 3.6 2 16.4 2C30.4 1.86667 34 20.9333 25.7333 26.1333Z" fill="currentColor"/>
</g>
<defs>
<clipPath id="clip0_2_13865">
<rect width="32" height="32" fill="white" transform="matrix(-1 0 0 1 32 0)"/>
</clipPath>
</defs>
</svg>
